# xmcd
#
# Track frame offsets:
#	150
#	17938
#	33704
#	51668
#	68364
#	88710
#	116074
#	128830
#	146502
#	166764
#	183221
#
# Disc length: 2665 seconds
#
# Revision: 1
# Processed by: cddbd v1.5.2PL0 Copyright (c) Steve Scherf et al.
# Submitted via: audiograbber 1.83.01
#
DISCID=960a670b
DTITLE=Kenny Rogers - You Can't Make Old Friends
DYEAR=2013
DGENRE=Country
TTITLE0=You Can't Make Old Friends (With Dolly Parton)
TTITLE1=All I Need Is One
TTITLE2=You Had To Be There
TTITLE3='merica
TTITLE4=Turn This World Around
TTITLE5=Dreams Of The San Joaquin
TTITLE6=Don't Leave Me In The Night Time (Feat. Buckwheat Zydeco)
TTITLE7=Look At You
TTITLE8=Neon Horses
TTITLE9=When You Love Someone
TTITLE10=It's Gonna Be Easy Now
EXTD=
EXTT0=
EXTT1=
EXTT2=
EXTT3=
EXTT4=
EXTT5=
EXTT6=
EXTT7=
EXTT8=
EXTT9=
EXTT10=
PLAYORDER=
